<?xml version="1.0" standalone="no"?>
<!DOCTYPE svg PUBLIC "-//W3C//DTD SVG 20010904//EN"
 "http://www.w3.org/TR/2001/REC-SVG-20010904/DTD/svg10.dtd">
<svg version="1.0" xmlns="http://www.w3.org/2000/svg"
 width="707.000000pt" height="200.000000pt" viewBox="0 0 707.000000 200.000000"
 preserveAspectRatio="xMidYMid meet">
<metadata>
Created by potrace 1.16, written by Peter Selinger 2001-2019
</metadata>
<g transform="translate(0.000000,200.000000) scale(0.100000,-0.100000)"
fill="#000000" stroke="none">
<path d="M3010 1912 c0 -23 10 -28 72 -37 79 -12 72 34 78 -552 4 -406 2 -533
-7 -550 -9 -15 -30 -25 -75 -35 -52 -12 -64 -18 -66 -36 l-3 -22 293 0 c215 0
316 4 378 15 252 44 428 223 469 476 38 234 -24 456 -163 587 -70 65 -171 120
-271 149 -49 13 -120 17 -382 21 -316 4 -323 3 -323 -16z m571 -52 c173 -33
295 -148 358 -336 84 -252 29 -567 -121 -685 -45 -36 -149 -82 -160 -71 -4 4
-16 50 -27 102 -15 77 -18 122 -13 238 l5 143 -34 29 c-35 29 -36 50 -1 31 18
-9 19 -7 18 27 0 27 6 44 23 61 l23 23 -21 22 c-15 16 -21 35 -21 70 l0 48
-30 -31 c-26 -25 -29 -34 -20 -50 15 -30 13 -32 -20 -13 -20 12 -28 22 -24 34
3 10 -6 32 -22 53 -18 23 -22 35 -13 35 8 0 25 10 39 23 39 34 65 32 78 -6
l10 -32 1 33 c2 69 -43 103 -103 78 -42 -18 -61 -67 -53 -139 5 -35 2 -58 -9
-80 -27 -50 -61 -215 -73 -347 -7 -69 -14 -132 -16 -140 -5 -16 24 -32 78 -44
22 -5 27 -11 22 -24 -3 -9 -16 -50 -28 -90 l-21 -73 -36 3 -35 3 -3 545 c-1
300 0 551 3 558 6 15 168 17 246 2z"/>
</g>
</svg>
